<svg width="22" height="22" viewBox="0 0 22 22" fill="none" xmlns="http://www.w3.org/2000/svg">
<path d="M10.082 13.7487H11.9154V15.582H10.082V13.7487ZM10.082 6.41536H11.9154V11.9154H10.082V6.41536ZM10.9895 1.83203C5.92953 1.83203 1.83203 5.9387 1.83203 10.9987C1.83203 16.0587 5.92953 20.1654 10.9895 20.1654C16.0587 20.1654 20.1654 16.0587 20.1654 10.9987C20.1654 5.9387 16.0587 1.83203 10.9895 1.83203ZM10.9987 18.332C6.94703 18.332 3.66536 15.0504 3.66536 10.9987C3.66536 6.94703 6.94703 3.66536 10.9987 3.66536C15.0504 3.66536 18.332 6.94703 18.332 10.9987C18.332 15.0504 15.0504 18.332 10.9987 18.332Z" fill="currentColor"/>
</svg>
